<svg width="37" height="36" viewBox="0 0 37 36" fill="none" xmlns="http://www.w3.org/2000/svg">
<path d="M34.7508 19.0521C34.6209 17.5585 33.3871 16.5195 31.8936 16.5195H4.23067C2.73714 16.5195 1.56828 17.6235 1.37347 19.0521L0.00980639 32.6887C-0.05513 33.4679 0.204616 34.3121 0.724107 34.8965C1.2436 35.481 2.02284 35.8056 2.86701 35.8056H33.3222C34.1014 35.8056 34.8807 35.481 35.4651 34.8965C35.9846 34.3121 36.2443 33.5329 36.1794 32.6887L34.7508 19.0521ZM33.7118 33.403C33.6469 33.4679 33.517 33.5978 33.2573 33.5978H2.86701C2.6722 33.5978 2.47739 33.4679 2.41245 33.403C2.34752 33.3381 2.21764 33.2082 2.28258 32.9484L3.64625 19.2469C3.64625 18.9222 3.90599 18.7274 4.23067 18.7274H31.9585C32.2832 18.7274 32.478 18.9222 32.543 19.2469L33.9066 32.9484C33.8417 33.1433 33.7767 33.3381 33.7118 33.403Z" fill="#3056D3"/>
<path d="M18.0635 21.585C15.531 21.585 13.5179 23.598 13.5179 26.1305C13.5179 28.663 15.531 30.6761 18.0635 30.6761C20.596 30.6761 22.609 28.663 22.609 26.1305C22.609 23.598 20.596 21.585 18.0635 21.585ZM18.0635 28.4033C16.8297 28.4033 15.7907 27.3643 15.7907 26.1305C15.7907 24.8967 16.8297 23.8577 18.0635 23.8577C19.2973 23.8577 20.3363 24.8967 20.3363 26.1305C20.3363 27.3643 19.2973 28.4033 18.0635 28.4033Z" fill="#3056D3"/>
<path d="M2.06494 11.8184C2.19481 14.6756 4.72733 15.8445 6.02606 15.8445H10.5716C10.6365 15.8445 10.6365 15.8445 10.6365 15.8445C12.5846 15.7146 14.5327 14.4159 14.5327 11.8184V10.26C16.6756 10.26 21.6108 10.26 23.7537 10.26V11.8184C23.7537 14.4159 25.7018 15.7146 27.6499 15.8445H27.7148H32.1954C33.4942 15.8445 36.0267 14.6756 36.1566 11.8184C36.1566 11.6236 36.1566 10.9093 36.1566 10.26C36.1566 9.74046 36.1566 9.28591 36.1566 9.22097C36.1566 9.15604 36.1566 9.0911 36.1566 9.0911C35.9617 7.27288 35.3124 5.77934 34.2085 4.61049L34.1435 4.54555C32.5201 3.05201 30.572 2.20784 29.0785 1.68835C24.7277 0 19.2731 0 19.0133 0C15.1821 0.0649364 12.7145 0.389618 9.01313 1.68835C7.58453 2.1429 5.63644 2.98708 4.01303 4.48061L3.94809 4.54555C2.84417 5.7144 2.19481 7.20794 2 9.02616C2 9.0911 2 9.15604 2 9.15604C2 9.28591 2 9.67553 2 10.195C2.06494 10.7794 2.06494 11.5587 2.06494 11.8184ZM5.5715 6.10402C6.87023 4.93517 8.49364 4.22087 9.85731 3.70138C13.234 2.46758 15.4418 2.20784 19.1432 2.1429C19.403 2.1429 24.468 2.20784 28.3642 3.70138C29.7278 4.22087 31.3513 4.87023 32.65 6.10402C33.3643 6.88326 33.8188 7.92224 33.9487 9.15604C33.9487 9.35084 33.9487 9.67553 33.9487 10.195C33.9487 10.8444 33.9487 11.5587 33.9487 11.7535C33.8838 13.247 32.4552 13.5717 32.2604 13.5717H27.7798C27.1304 13.5068 26.0914 13.247 26.0914 11.8184V9.15604C26.0914 8.63654 25.7667 8.24693 25.3122 8.05212C24.9226 7.92224 13.5587 7.92224 13.1691 8.05212C12.7145 8.18199 12.3898 8.63654 12.3898 9.15604V11.8184C12.3898 13.247 11.3508 13.5068 10.7015 13.5717H6.22087C6.02606 13.5717 4.59746 13.247 4.53252 11.7535C4.53252 11.5587 4.53252 10.8444 4.53252 10.195C4.53252 9.67553 4.53252 9.41578 4.53252 9.22097C4.40265 7.92224 4.8572 6.88326 5.5715 6.10402Z" fill="#3056D3"/>
</svg>
