<svg width="20" height="8" viewBox="0 0 20 8" fill="none" xmlns="http://www.w3.org/2000/svg">
<path d="M18.8438 2.74812L16.6875 0.185616C16.5 -0.0331342 16.1562 -0.0643838 15.9062 0.123116C15.6875 0.310616 15.6562 0.654366 15.8438 0.904366L17.875 3.31062H0.5625C0.25 3.31062 0 3.56062 0 3.87312C0 4.18562 0.25 4.43562 0.5625 4.43562H17.875L15.8438 6.84187C15.6562 7.06062 15.6875 7.40437 15.9062 7.62312C16 7.71687 16.125 7.74812 16.25 7.74812C16.4062 7.74812 16.5625 7.68562 16.6562 7.56062L18.8125 4.99812C19.375 4.31062 19.375 3.37312 18.8438 2.74812Z" fill="#212B36"/>
</svg>
